<svg viewBox="0 0 24 24" xmlns="http://www.w3.org/2000/svg" width="28" role="presentation" alt="" data-testid="WrenchIcon" size="28" color="#484848"><path fill="#484848" d="M23.0616 18.5338L15.0011 10.4733C15.3211 9.62528 15.4939 8.70691 15.4939 7.75014C15.4971 3.46868 12.0284 0 7.74694 0C6.78697 0 5.8686 0.175994 5.02383 0.492784L10.0125 5.48142L5.48142 10.0125L0.492784 5.02383C0.172794 5.8718 0 6.79017 0 7.74694C0 12.0252 3.46868 15.4939 7.74694 15.4939C8.70691 15.4939 9.62528 15.3179 10.4701 15.0011L18.5306 23.0616C19.7817 24.3128 21.8105 24.3128 23.0616 23.0616C24.3128 21.8105 24.3128 19.7817 23.0616 18.5306V18.5338ZM20.4921 21.9193C19.6729 21.9193 19.0106 21.2569 19.0106 20.4377C19.0106 19.6185 19.6729 18.9562 20.4921 18.9562C21.3113 18.9562 21.9737 19.6185 21.9737 20.4377C21.9737 21.2569 21.3113 21.9193 20.4921 21.9193Z"/></svg>