<svg xmlns="http://www.w3.org/2000/svg"  viewBox="0 0 32 32" width="32px" height="32px"><path d="M 9.28125 4 C 7.2123109 4 5.5393831 4.6227112 4.4707031 5.8652344 C 3.4020232 7.1077575 3 8.814801 3 10.789062 L 3 21.789062 C 3 25.312994 5.6871293 28 9.28125 28 L 14.974609 28 L 14.974609 4 L 9.28125 4 z M 17 4 L 17 28 L 22.705078 28 C 26.305179 28 29 25.314303 29 21.789062 L 29 10.789062 C 29 8.8144379 28.596578 7.1056132 27.525391 5.8632812 C 26.454203 4.6209494 24.77807 4 22.705078 4 L 17 4 z M 9.28125 6 L 12.974609 6 L 12.974609 26 L 9.28125 26 C 6.6033707 26 5 24.377131 5 21.789062 L 5 10.789062 C 5 9.090325 5.3572112 7.9036487 5.9882812 7.1699219 C 6.6193513 6.436195 7.5871891 6 9.28125 6 z M 19 6 L 22.705078 6 C 24.404086 6 25.376953 6.4360038 26.009766 7.1699219 C 26.642578 7.9038399 27 9.0906881 27 10.789062 L 27 21.789062 C 27 24.375822 25.390978 26 22.705078 26 L 19 26 L 19 6 z M 9 9 A 2 2 0 0 0 9 13 A 2 2 0 0 0 9 9 z M 23 16 A 2 2 0 0 0 23 20 A 2 2 0 0 0 23 16 z"/></svg>